PathFileType	4	(X/Y/Z)	/home/abdul/Desktop/myosuite/custom_workspace/IK/output/S5_12_2.trc
DataRate	CameraRate	NumFrames	NumMarkers	Units	OrigDataRate	OrigDataStartFrame	OrigNumFrames
200.0	200.0	22	3	mm	200.0	350	1396
Frame#	Time	V_Shoulder			V_Elbow			V_Wrist		
		X1	Y1	Z1	X2	Y2	Z2	X3	Y3	Z3

350	1.745	-2.5182930009079434	744.2728829573338	251.1594575530497	-147.85467723656197	537.4469201809561	75.76306144583381	21.29256337696789	483.1981398372136	246.43551329375043
351	1.75	-2.4935305475789025	744.5891883554987	251.22180730888718	-147.53618350350158	537.0693299777508	76.52564072637398	21.57546150098825	484.51035118492814	247.59501064980708
352	1.755	-2.4693402613154585	744.9005472959722	251.28267328831853	-147.21338097771235	536.6923777119968	77.276391969728	21.851940204121917	485.7979517828084	248.72080675329812
353	1.76	-2.4457665841980516	745.2068083122916	251.34202515520943	-146.88649771722476	536.3162302212205	78.01506330556579	22.122353058930965	487.06132060025743	249.8135953932771
354	1.765	-2.4228515124262073	745.5078291079626	251.39983541392417	-146.55575416843277	535.9410442806542	78.74142653566031	22.387048632302506	488.30085825616646	250.87408907738805
355	1.77	-2.4006345092745582	745.8034766948485	251.45607944837965	-146.22136296697118	535.5669665933392	79.45527713999556	22.646369612928805	489.51698523099355	251.9030168504358
356	1.775	-2.379152426116474	746.0936275097238	251.51073555464154	-145.88352877574135	535.1941338168207	80.15643422874221	22.90065199110838	490.71014008752593	252.90112216542707
357	1.78	-2.3584394316607504	746.3781675090128	251.5637849670217	-145.54244815955383	534.8226726253229	80.84474044147213	23.150224291760058	491.8807777049236	253.86916081144645
358	1.785	-2.338526949518649	746.6569922418029	251.6152118776532	-145.1983094957377	534.4526998061847	81.52006179510408	23.395406861297648	493.0293675304243	254.8078989023249
359	1.79	-2.3194436041904223	746.9300069012676	251.66500344953624	-144.85129291995253	534.0843223892259	82.182287482184	23.636511208776334	494.1563918528607	255.71811092965982
360	1.795	-2.3012151755322665	747.1971263546939	251.71314982306782	-144.50157030633085	533.7176378076197	82.8313296212065	23.873839401494635	495.2623441019199	256.60057788334495
361	1.8	-2.283864561736652	747.4582751523554	251.75964411608143	-144.14930528097665	533.3527340887526	83.46712296077902	24.107683515018252	496.347727176843	257.45608544237695
362	1.805	-2.267411750831209	747.7133875155299	251.80448241744364	-143.794653267748	532.9896900734757	84.08962453951483	24.338325137384896	497.41305180803647	258.28542223832017
363	1.81	-2.251873800673915	747.9624073039977	251.84766377426786	-143.43776156516267	532.6285756620742	84.69881330361889	24.56603492705284	498.4588349548402	259.0893781934344
364	1.815	-2.2372648273953475	748.2052879634134	251.8891901728244	-143.07876945317935	532.2694520852183	85.2946896841984	24.791072223971266	499.48559824247275	259.868742935103
365	1.82	-2.22359600221226	748.4419924529853	251.92906651323995	-142.71780832852974	531.9123721981002	85.87727513638976	25.013684712977387	500.49386644094966	260.62430428784296
366	1.825	-2.2108755565109246	748.6724931539362	251.96730057809452	-142.35500186720327	531.5573807959162	86.44661164244505	25.234108138564412	501.48416598855357	261.356846843836
367	1.83	-2.19910879507349	748.8967717592622	252.0039029950416	-141.9904662126204	531.2045149488073	87.00276118096474	25.45256606991597	502.45702356221994	262.0671506125865
368	1.835	-2.1882981172962537	749.1148191453467	252.03888719358807	-141.62431018797034	530.8538043543447	87.54580516449737	25.669269714966376	503.412964696991	262.7559897499962
369	1.84	-2.1784430462251985	749.3266352260198	252.07226935618715	-141.25663553113537	530.505271705618	88.07584384775524	25.88441778212282	504.3525124564866	263.42413136684456
370	1.845	-2.169540265211571	749.5322287896857	252.10406836380943	-140.88753715057575	530.1589330729701	88.5929957087141	26.098196388174504	505.27618615613994	264.07233441637226
371	1.85	-2.1615836619686837	749.7316173201775	252.1343057361696	-140.51710340050863	529.814798297412	89.09739680487667	26.31077901081529	506.1845001407541	264.70134866039564
